<svg id="ba778b86-6fb2-4801-93c5-71105facfe91" data-name="Layer 1" xmlns="http://www.w3.org/2000/svg" width="865.76" height="682.89" viewBox="0 0 865.76 682.89"><path d="M633.23,592.89s-1.29,34.29,0,44.15c0,0,15,5.57,17.78,6s16.93,0,16.93,0V595Z" fill="#f9b499"/><polygon points="756.87 604.25 768.44 643.23 800.99 640.9 787.73 594.61 756.87 604.25" fill="#f9b499"/><path d="M655.94,198.61s-11.14-56.57,30.86-54A27.4,27.4,0,0,1,707.7,153s15.53-.37,16,18.53c0,0-2.49,21.52,3.16,32.15a8.75,8.75,0,0,0,9.73,4.41c8.62-2,28.84-5.9,32.53,1,0,0,8.58,13.07-6,29.78,0,0,21.86-4.71,30,4.72,0,0,3.86,12.43-23.57,25.07L654.6,293.89s-22.23.72-17.52-13.85c0,0,3.86-6,12.86-9,0,0-16.37-15.72-13.51-24.86,0,0,5.8-10.71,27.65-1.29Z" fill="#2B2E4A"/><rect x="265.23" y="268.68" width="209.43" height="235.5" rx="9.14" fill="#ccc"/><circle cx="329.26" cy="307.64" r="25.85" fill="#2B2E4A"/><circle cx="328.7" cy="298.75" r="7.71" fill="#fff"/><path d="M315.7,347.44h25.14V321.21a12.57,12.57,0,0,0-12.57-12.57h0a12.57,12.57,0,0,0-12.57,12.57Z" fill="#fff"/><rect x="366.41" y="290.04" width="25.43" height="2" fill="#2B2E4A"/><rect x="366.41" y="297.75" width="35.71" height="2" fill="#2B2E4A"/><rect x="366.41" y="305.47" width="35.71" height="2" fill="#2B2E4A"/><rect x="366.41" y="313.18" width="35.71" height="2" fill="#2B2E4A"/><rect x="366.41" y="321.89" width="35.71" height="2" fill="#2B2E4A"/><circle cx="329.26" cy="380.66" r="25.85" fill="#2B2E4A"/><circle cx="328.7" cy="371.77" r="7.71" fill="#fff"/><path d="M315.7,420.46h25.14V394.23a12.57,12.57,0,0,0-12.57-12.57h0a12.57,12.57,0,0,0-12.57,12.57Z" fill="#fff"/><rect x="366.41" y="363.06" width="25.43" height="2" fill="#2B2E4A"/><rect x="366.41" y="370.77" width="35.71" height="2" fill="#2B2E4A"/><rect x="366.41" y="378.48" width="35.71" height="2" fill="#2B2E4A"/><rect x="366.41" y="386.2" width="35.71" height="2" fill="#2B2E4A"/><rect x="366.41" y="394.91" width="35.71" height="2" fill="#2B2E4A"/><circle cx="329.26" cy="453.68" r="25.85" fill="#2B2E4A"/><circle cx="328.7" cy="444.79" r="7.71" fill="#fff"/><path d="M315.7,493.48h25.14V467.25a12.57,12.57,0,0,0-12.57-12.57h0a12.57,12.57,0,0,0-12.57,12.57Z" fill="#fff"/><rect x="366.41" y="436.08" width="25.43" height="2" fill="#2B2E4A"/><rect x="366.41" y="443.79" width="35.71" height="2" fill="#2B2E4A"/><rect x="366.41" y="451.5" width="35.71" height="2" fill="#2B2E4A"/><rect x="366.41" y="459.22" width="35.71" height="2" fill="#2B2E4A"/><rect x="366.41" y="467.93" width="35.71" height="2" fill="#2B2E4A"/><path d="M139.51,641.32l24.38,6.57A5.7,5.7,0,0,1,168,654.7h0A11.34,11.34,0,0,1,157.46,663H84.73A2.92,2.92,0,0,1,82,659.18l6.11-17.86Z" fill="#2B2E4A"/><path d="M238.37,637.89l34.1,10a5.71,5.71,0,0,1,4.07,6.81h0A11.34,11.34,0,0,1,266,663H195.55a2.82,2.82,0,0,1-2.75-3.4l3.86-18.32Z" fill="#2B2E4A"/><path d="M128.66,365.26S106.37,552.75,88.08,631c0,0,30.86,1.14,53.72-2.29,0,0,30.86-153.71,28.57-225.14,0,0,26.84,46.86,27.43,227.61l48-4.75s-4.55-204.24-37.08-258Z" fill="#2B2E4A"/><path d="M231.58,189s-14.07,26.85-18.35,30.85c0,0,13.72,8.57,19.81,21.34a84.58,84.58,0,0,0,5.61,10.23c6.66,10.13,19.66,29.49,23.43,32l-39,21.71L219.23,301s5.14,62.57,4.28,71.14l-101.14-3.71S141.32,253.89,161,226.89c0,0,31.65-59.45,34.45-59.87Z" fill="#FFE9AE"/><polygon points="222.49 183.5 265.23 100.89 249.8 87.06 195.44 167.02 222.49 183.5" fill="#f9b499"/><polygon points="222.49 183.5 265.23 100.89 249.8 87.06 195.44 167.02 222.49 183.5" opacity="0.04"/><path d="M577,76.47V231H502.66c-7.74,0-13.37,4.88-15,14v13.52H278.53a10.86,10.86,0,0,1-10.87-10.87V76.47A10.87,10.87,0,0,1,278.53,65.6H566.09A10.88,10.88,0,0,1,577,76.47Z" fill="#ccc"/><circle cx="279.19" cy="77.59" r="9.47" fill="#2B2E4A"/><path d="M279.19,84.39a.5.5,0,0,1-.5-.5V72.75a.5.5,0,0,1,.5-.5.51.51,0,0,1,.5.5V83.89A.5.5,0,0,1,279.19,84.39Z" fill="#ccc"/><path d="M274.08,81.25a.49.49,0,0,1-.44-.27.5.5,0,0,1,.22-.68l10.29-5.14a.5.5,0,1,1,.44.9L274.31,81.2A.64.64,0,0,1,274.08,81.25Z" fill="#ccc"/><path d="M284.37,81.25a.54.54,0,0,1-.22,0l-10.29-5.14a.49.49,0,0,1-.22-.67.5.5,0,0,1,.67-.23l10.28,5.14a.5.5,0,0,1-.22,1Z" fill="#ccc"/><rect x="293.8" y="100.89" width="45" height="41.57" opacity="0.2"/><rect x="293.8" y="146.47" width="45" height="6.57" opacity="0.2"/><rect x="350.94" y="105.32" width="29.14" height="3.71" opacity="0.2"/><rect x="350.94" y="113.04" width="74.86" height="3.71" opacity="0.2"/><rect x="350.94" y="120.75" width="74.86" height="3.71" opacity="0.2"/><rect x="350.94" y="128.47" width="74.86" height="3.71" opacity="0.2"/><rect x="350.94" y="136.18" width="74.86" height="3.71" opacity="0.2"/><g opacity="0.2"><polygon points="298.06 205.47 297.54 204.61 368.72 161.45 395.01 186.69 451.04 152.39 459.04 161.44 547.25 108.61 547.77 109.47 458.84 162.72 450.84 153.68 394.87 187.95 368.58 162.71 298.06 205.47"/></g><circle cx="297.33" cy="205.57" r="3.54" fill="#2B2E4A"/><circle cx="369.05" cy="162.08" r="3.54" fill="#2B2E4A"/><circle cx="394.83" cy="187.04" r="3.54" fill="#2B2E4A"/><circle cx="451.39" cy="153.04" r="3.54" fill="#2B2E4A"/><circle cx="458.46" cy="162.08" r="3.54" fill="#2B2E4A"/><circle cx="547.51" cy="109.04" r="3.54" fill="#2B2E4A"/><g opacity="0.2"><polygon points="548.01 223.54 297.3 223.54 297.3 216.75 298.3 216.75 298.3 222.54 547.01 222.54 547.01 216.75 548.01 216.75 548.01 223.54"/></g><g opacity="0.2"><rect x="368.55" y="216.75" width="1" height="6.29"/></g><g opacity="0.2"><rect x="394.33" y="216.75" width="1" height="6.29"/></g><g opacity="0.2"><rect x="451.58" y="216.75" width="1" height="6.29"/></g><g opacity="0.2"><rect x="463.58" y="216.75" width="1" height="6.29"/></g><path d="M641.8,249.5V384.3a13.61,13.61,0,0,1-13.63,13.59H506.35a13.6,13.6,0,0,1-13.63-13.59V249.5a13.61,13.61,0,0,1,13.63-13.59H628.17A13.61,13.61,0,0,1,641.8,249.5Z" fill="#ccc"/><rect x="508.08" y="261.39" width="7.43" height="1" fill="#2B2E4A"/><rect x="508.08" y="273.67" width="7.43" height="1" fill="#2B2E4A"/><rect x="508.08" y="288.29" width="7.43" height="1" fill="#2B2E4A"/><rect x="508.08" y="300.82" width="7.43" height="1" fill="#2B2E4A"/><rect x="508.08" y="314.35" width="7.43" height="1" fill="#2B2E4A"/><rect x="508.08" y="327.88" width="7.43" height="1" fill="#2B2E4A"/><rect x="508.08" y="341.41" width="7.43" height="1" fill="#2B2E4A"/><rect x="508.08" y="354.94" width="7.43" height="1" fill="#2B2E4A"/><rect x="508.08" y="381.47" width="114.86" height="2" fill="#2B2E4A"/><rect x="547.51" y="314.47" width="6.86" height="54.86" rx="3.43" fill="#2B2E4A"/><rect x="570.11" y="285.14" width="6.86" height="84.18" rx="3.43" fill="#3f3d56"/><rect x="570.11" y="285.14" width="6.86" height="84.18" rx="3.43" fill="#fff" opacity="0.3"/><rect x="593.23" y="340.74" width="6.86" height="28.58" rx="3.43" fill="#2B2E4A"/><rect x="616.08" y="261.89" width="6.86" height="107.43" rx="3.43" fill="#3f3d56"/><rect x="616.08" y="261.89" width="6.86" height="107.43" rx="3.43" fill="#fff" opacity="0.3"/><ellipse cx="416.33" cy="336.83" rx="26.54" ry="31.64" fill="#f9b499"/><path d="M428.53,348.18s6.13-2,5.84-11.14c0,0,.29-10.29-9.14-10.86,0,0-5.72,1.14-6.57,10.86,0,0-7.14-17.15,7.28-29.72,0,0-26.43,1.72-32.71-8.28,0,0,4.28,1.71,7.14,1.43,0,0-2-3.72,0-6.58,0,0,.86,5.15,11.71,5.15a76.6,76.6,0,0,1,17.92.31,30.62,30.62,0,0,1,25.32,22.33c3.06,11.51,2.7,28.56-19.52,39.93l-7.27-13.43" fill="#2B2E4A"/><polygon points="416.33 365.61 420.08 376.75 439.8 368.47 433.06 356.56 416.33 365.61" fill="#f9b499"/><path d="M413.8,509.75l-43.86,3.86s-29.43,0-30.28,27l11,77.55a65.41,65.41,0,0,0,8.46,24.07l.23.38h34.29l-3-84.86L460.08,541l21,89.57s4.29,37.28,43.29,26.57l64.71-25.71V600L521.8,623.32,499.51,521.75l-45.43-13.28Z" fill="#2B2E4A"/><path d="M323.8,437.32c-9.16-6-13-22.25-13-22.25l-9-11.68a4.65,4.65,0,0,1,.52-6.24l13.78-12.78a6,6,0,0,1,9.12,1.26c3.65,6,8.61,15.75,9.45,25.08a57.3,57.3,0,0,0,.83,6.12l2.09,10.26Z" fill="#f9b499"/><path d="M360.63,413s-12-14.29-10.55-28.86c0,0-1.47-8.1-3.28-11.78a1.77,1.77,0,0,1,0-1.63h0a1.74,1.74,0,0,1,3-.18,40.17,40.17,0,0,1,5.43,12.19s-1.75-10.54-5-16.38a6.12,6.12,0,0,0-5.95-3c-4.06.38-10.66.21-8.24-5.46,0,0,1.43-2.85,4.2-.12a4.1,4.1,0,0,0,4.33.92c3.13-1.21,8.14-2.41,10.05,1.2,0,0,9.94,13.41,10,15.15.16,4.86-.29,25.43,5.28,28.85Z" fill="#f9b499"/><ellipse cx="204.88" cy="166.59" rx="22.4" ry="30.41" fill="#f9b499"/><ellipse cx="193.49" cy="166.17" rx="7.53" ry="9.59" fill="#f9b499"/><path d="M182.48,181.5a65.68,65.68,0,0,1-1.82,27.61L201,211.47,204.88,187Z" fill="#f9b499"/><path d="M174.66,211.47V202s35.14,3.28,35.57,14.71C210.23,216.75,193.08,211,174.66,211.47Z" fill="#FFE9AE"/><path d="M174.66,211.47V202s35.14,3.28,35.57,14.71C210.23,216.75,193.08,211,174.66,211.47Z" opacity="0.2"/><path d="M267.66,53.61s-8.15-7.44-11.86,12l-6,21.46,15.43,13.83s16-22.37,22.27-34.84a6,6,0,0,0,.05-5.29C285.43,56.34,279.85,48.81,267.66,53.61Z" fill="#f9b499"/><path d="M267.66,53.61s-8.15-7.44-11.86,12l-6,21.46,15.43,13.83s16-22.37,22.27-34.84a6,6,0,0,0,.05-5.29C285.43,56.34,279.85,48.81,267.66,53.61Z" opacity="0.04"/><path d="M83,645.54l1.91-12.1a2.83,2.83,0,0,1,2.58-2.39l54.48-4.2a2.84,2.84,0,0,1,2.76,4.1l-4.52,9a2.85,2.85,0,0,1-2.15,1.54l-51.86,7.26A2.83,2.83,0,0,1,83,645.54Z" fill="#2B2E4A"/><path d="M192.08,646.54V633.28a2.38,2.38,0,0,1,2-2.35l52.26-7.41A2.38,2.38,0,0,1,249,626.4l-2.89,12.78a2.38,2.38,0,0,1-1.94,1.83l-49.37,7.87A2.38,2.38,0,0,1,192.08,646.54Z" fill="#2B2E4A"/><path d="M83,645.54l1.91-12.1a2.83,2.83,0,0,1,2.58-2.39l54.48-4.2a2.84,2.84,0,0,1,2.76,4.1l-4.52,9a2.85,2.85,0,0,1-2.15,1.54l-51.86,7.26A2.83,2.83,0,0,1,83,645.54Z" opacity="0.2"/><path d="M192.08,646.54V633.28a2.38,2.38,0,0,1,2-2.35l52.26-7.41A2.38,2.38,0,0,1,249,626.4l-2.89,12.78a2.38,2.38,0,0,1-1.94,1.83l-49.37,7.87A2.38,2.38,0,0,1,192.08,646.54Z" opacity="0.2"/><ellipse cx="684.56" cy="179.31" rx="23.14" ry="29.8" fill="#f9b499"/><ellipse cx="711.23" cy="185.75" rx="7.71" ry="10.71" fill="#f9b499"/><path d="M627.66,576.61s9.84-118.89,31.7-191c1.73.06,34.77,2.66,78-6.87,0,0,42.41,176,54,200l-45.43,12S701.32,442.94,700,408.15a.47.47,0,0,0-.92-.12c-4,14.12-19.24,73.61-25.18,175.76Z" fill="#2B2E4A"/><polygon points="623.8 596.75 623.8 576.18 678.23 583.79 678.23 601.47 623.8 596.75" fill="#2B2E4A"/><polygon points="623.8 596.75 623.8 576.18 678.23 583.79 678.23 601.47 623.8 596.75" opacity="0.2"/><path d="M597.66,659.11h0a11.73,11.73,0,0,1,6.25-10.38l23.75-12.55V625.12a2.44,2.44,0,0,1,2.64-2.43L645.62,624a2.44,2.44,0,0,1,2.21,2.8l-1.75,11.56h21.86l1.72,20.79Z" fill="#2B2E4A"/><path d="M733.35,659.11h0a11.74,11.74,0,0,1,6.26-10.38l23.74-12.55-5.19-7a2.2,2.2,0,0,1,1.79-3.53h0L775.32,627c1.41.12,2.14,1.49,3.48,4.41l3,7h18.59l5,20.79Z" fill="#2B2E4A"/><polygon points="745.94 590.75 741.01 592.89 745.94 609.18 799.3 594.61 793.73 578.47 745.94 590.75" fill="#2B2E4A"/><polygon points="745.94 590.75 741.01 592.89 745.94 609.18 799.3 594.61 793.73 578.47 745.94 590.75" opacity="0.2"/><path d="M606.08,110c-1.33-7.91-3.49-14.43-5.78-18.29a14,14,0,0,0-17.24-5.65l-17.58,7.11a3.16,3.16,0,0,0-1.67,4.29h0a3.16,3.16,0,0,0,3.69,1.7l17.67-3.63,1.77,8.61S569.8,107,572.37,111c0,0,4.86,1.07,8.86,1.53,0,0,6.22,1.19,8.82,5.26Z" fill="#f9b499"/><path d="M548.87,106.48l16.07-6.59L679.51,75.42a3.14,3.14,0,0,1,3.73,2.49l.76,4.14a3.11,3.11,0,0,1-2.46,3.62L565.51,109l-15.94.66a1.68,1.68,0,0,1-1.69-1.25h0A1.67,1.67,0,0,1,548.87,106.48Z" fill="#2B2E4A"/><path d="M548.87,106.48l16.07-6.59L679.51,75.42a3.14,3.14,0,0,1,3.73,2.49l.76,4.14a3.11,3.11,0,0,1-2.46,3.62L565.51,109l-15.94.66a1.68,1.68,0,0,1-1.69-1.25h0A1.67,1.67,0,0,1,548.87,106.48Z" fill="#fff" opacity="0.2"/><path d="M258.65,285.38s26.18,65,42.36-3.53c0,0-1.16-30.43,21.87-33.43l3.91-1.37a2.55,2.55,0,0,1,3.4,2.4h0a2.54,2.54,0,0,1-1.86,2.45c-2.73.78-7.59,2.44-8.36,4.62h22.6a4.18,4.18,0,0,1,3.49,6.51c-4.12,6.12-10.85,14.43-17.3,15l-8.79.42s.36,71.43-39.93,69.43c0,0-31-8.51-50.76-46.11Z" fill="#f9b499"/><path d="M182.48,189s-37.39-30.53-13.54-39.29c0,0-6.86-18.14,19.43-21.28,0,0,36.79-5.13,42.47,14.16a15.73,15.73,0,0,1-2,13,16.1,16.1,0,0,1-2.4,2.92s-4-15.39-10.88-18.65c0,0-8.8,8.58-14.59,7.72,0,0,2.36,8.65,0,14.47,0,0-3.9-7-9.85-5a7.75,7.75,0,0,0-4.49,5.21,11.54,11.54,0,0,0,4.19,12.87l.12.09S187.44,186.18,182.48,189Z" fill="#2B2E4A"/><path d="M434.37,441.18l-37-29.57c-8.29-7.72-17-5.57-17-5.57l-10.43-6-12.71,15.85L412,470.18s9,8.71,22.33-3.71C433.08,463.47,434.37,441.18,434.37,441.18Z" fill="#FFE9AE"/><path d="M434.37,441.18l-37-29.57c-8.29-7.72-17-5.57-17-5.57l-10.43-6-12.71,15.85L412,470.18s9,8.71,22.33-3.71C433.08,463.47,434.37,441.18,434.37,441.18Z" fill="#fff" opacity="0.3"/><path d="M409.8,391s-6-8.57,0-12.57c0,0,23.57-14.29,33.07-13.15,0,0,4.93,1.72,8.07,11.43,0,0,25.86-1.14,35.72,24.14,0,0,17.41,48.91,23.14,74.15,0,0,8.57,30.85-4.29,32.57,0,0,1.72,13.71-6,14.14l-45.43-13.28-40.28,1.28s-6-15.43,11.16-17.14c0,0-2.34-10.29,3.11-15l-9.41-24.43s-14.72,42.43-25.43,46.71c0,0-19.72,10.72-30.86-1.28,0,0-37-32.57-35.86-49.72,0,0-7-7.28-2.71-11.57l13.78-10.23a2.07,2.07,0,0,1,2.48,0,119.58,119.58,0,0,1,31.24,36.48,6.63,6.63,0,0,0,3.25,3c1.59.64,3.75.74,6-1.44a10.21,10.21,0,0,0,3-6.46C384.79,446.45,390.83,395.56,409.8,391Z" fill="#FFE9AE"/><path d="M409.8,391s-6-8.57,0-12.57c0,0,23.57-14.29,33.07-13.15,0,0,4.93,1.72,8.07,11.43,0,0,25.86-1.14,35.72,24.14,0,0,17.41,48.91,23.14,74.15,0,0,8.57,30.85-4.29,32.57,0,0,1.72,13.71-6,14.14l-45.43-13.28-40.28,1.28s-6-15.43,11.16-17.14c0,0-2.34-10.29,3.11-15l-9.41-24.43s-14.72,42.43-25.43,46.71c0,0-19.72,10.72-30.86-1.28,0,0-37-32.57-35.86-49.72,0,0-7-7.28-2.71-11.57l13.78-10.23a2.07,2.07,0,0,1,2.48,0,119.58,119.58,0,0,1,31.24,36.48,6.63,6.63,0,0,0,3.25,3c1.59.64,3.75.74,6-1.44a10.21,10.21,0,0,0,3-6.46C384.79,446.45,390.83,395.56,409.8,391Z" fill="#fff" opacity="0.2"/><polygon points="678.29 205.47 679.94 216.75 674.43 252.2 703.51 238.91 703.51 219.89 697.43 199.48 678.29 205.47" fill="#f9b499"/><path d="M586.94,119.32,608.37,109s29.57,87.28,71.57,107.71c0,0-5.14,24.29,0,26.86,0,0,9.23,5,23.57-23.72,0,0,38.15,5.86,69.86,42,0,0,16.19,17.21,14.82,36.83a14,14,0,0,1-7.87,11.63c-5.27,2.56-14.51,5.43-30.52,7,0,0-17.57,1.72-17.14-5.57H716.8V287.42l30.37-.74s-3.83-17.3-2.09-28.12c0,0-10.28,51.94-.85,98,0,0,.43,7.34-5,7.92l1.71,13.42s-35.41,10.88-86.86,7.43l.29-14.84s-11.58-4.36-4.59-18.59a96.53,96.53,0,0,0,4.87-11.54l4.79-14.06a30.1,30.1,0,0,0,.92-16.76c-.08-.35-.18-.71-.28-1.06,0,0-9.42-22.58-5.14-42.29l6.47-24.57S620.8,221.75,594.66,157c0,0-8.58-18.86-4.29-25.72Z" fill="#FFE9AE"/><path d="M716.8,290.32s-.81-.22-2.12-.5c-5.36-1.16-19.13-3.38-20.17,4.08,0,0-4.28,13.57,22.29,15.71Z" fill="#f9b499"/><path d="M703.5,288.61s8.21-42.22,11.18-46.93l48.19,23.46s-6.21,13.61-6.86,21.33l-39.21.95v2.9S706.68,288.27,703.5,288.61Z" fill="#2B2E4A"/><path d="M701.31,305.86s0,29.89,2.19,40.18l51.87-1.15s-5.69-13.5-4-27.71c0,0-11.92,1.55-16.92-1.94,0,0-2-.7-1.77-3.49H716.8v-2.14S704.78,308.21,701.31,305.86Z" fill="#2B2E4A"/><path d="M691.8,343.89s1.41-34.94,5.7-40.72a25.76,25.76,0,0,0,3.81,2.69s.24,31.83,1.76,37.61Z" fill="#fff"/><polygon points="703.5 249.18 701.32 288.59 703.5 288.61 712.16 249.18 703.5 249.18" fill="#fff"/><polygon points="736.29 252.2 758.37 252.2 756.2 261.89 736.29 252.2" fill="#fff"/><path d="M356.35,641.32l-18.19,6.57c-2.22.8-3.57,3.81-3,6.81h0c.79,4.59,4.32,8.34,7.83,8.34h54.28c1.49,0,2.53-2,2-3.86l-4.56-17.86Z" fill="#2B2E4A"/><path d="M356.35,641.32l-18.19,6.57c-2.22.8-3.57,3.81-3,6.81h0c.79,4.59,4.32,8.34,7.83,8.34h54.28c1.49,0,2.53-2,2-3.86l-4.56-17.86Z" opacity="0.2"/><path d="M583.21,638.63l6.56,18.19c.8,2.22,3.82,3.57,6.82,3h0c4.58-.79,8.33-4.32,8.33-7.84V597.75c0-1.49-2-2.54-3.85-2l-17.86,4.56Z" fill="#2B2E4A"/><path d="M583.21,638.63l6.56,18.19c.8,2.22,3.82,3.57,6.82,3h0c4.58-.79,8.33-4.32,8.33-7.84V597.75c0-1.49-2-2.54-3.85-2l-17.86,4.56Z" opacity="0.2"/><path d="M203.32,196.92l-.81,5.12a23.81,23.81,0,0,1-12.75-13A22.46,22.46,0,0,0,203.32,196.92Z" fill="#f7a48b"/><ellipse cx="426.51" cy="336.83" rx="7.86" ry="10.86" fill="#f9b499"/><path d="M418.27,371.35l-1-2.91s7.33-.46,12.56-4.38A18.32,18.32,0,0,1,418.27,371.35Z" fill="#f7a48b"/><path d="M679.44,213.31l-.76-5.17a19.56,19.56,0,0,0,16.53-2.25S692.16,212.69,679.44,213.31Z" fill="#f7a48b"/></svg>