<svg xmlns="http://www.w3.org/2000/svg" xmlns:xlink="http://www.w3.org/1999/xlink" width="1500" zoomAndPan="magnify" viewBox="0 0 1125 1124.99995" height="1500" preserveAspectRatio="xMidYMid meet" version="1.0"><defs><clipPath id="id1"><path d="M 0 35 L 1125 35 L 1125 1093.914062 L 0 1093.914062 Z M 0 35 " clip-rule="nonzero"/></clipPath><clipPath id="id2"><path d="M 0 35.675781 L 1125 35.675781 L 1125 1093.914062 L 0 1093.914062 Z M 0 35.675781 " clip-rule="nonzero"/></clipPath></defs><rect x="-112.5" width="1350" fill="#d14b39" y="-112.499995" height="1349.99994" fill-opacity="1"/><rect x="-112.5" width="1350" fill="#ffffff" y="-112.499995" height="1349.99994" fill-opacity="1"/><rect x="-112.5" width="1350" fill="#d14b39" y="-112.499995" height="1349.99994" fill-opacity="1"/><rect x="-112.5" width="1350" fill="#ffffff" y="-112.499995" height="1349.99994" fill-opacity="1"/><g clip-path="url(#id1)"><path fill="#ffffff" d="M -62.191406 35.675781 L 1186.9375 35.675781 L 1186.9375 1294.878906 L -62.191406 1294.878906 Z M -62.191406 35.675781 " fill-opacity="1" fill-rule="nonzero"/></g><g clip-path="url(#id2)"><path stroke-linecap="butt" transform="matrix(2.608819, 0, 0, 2.608819, -79.829133, 23.077754)" fill="none" stroke-linejoin="miter" d="M -34.599798 -31.231061 L 526.299616 -31.231061 L 526.299616 534.200756 L -34.599798 534.200756 Z M -34.599798 -31.231061 " stroke="#000000" stroke-width="0.29" stroke-opacity="1" stroke-miterlimit="10"/></g><path fill="#d14b39" d="M 440.316406 770.742188 L 395.707031 785.632812 L 409.53125 810.601562 Z M 440.316406 770.742188 " fill-opacity="1" fill-rule="nonzero"/><path fill="#d14b39" d="M 684.292969 771.078125 L 718.597656 803.429688 L 733.730469 779.222656 Z M 684.292969 771.078125 " fill-opacity="1" fill-rule="nonzero"/><path fill="#d14b39" d="M 563.089844 728.058594 C 562.957031 728.636719 562.804688 729.183594 562.59375 729.730469 C 562.203125 730.800781 561.679688 731.8125 561.050781 732.78125 C 560.453125 731.839844 559.960938 730.847656 559.566406 729.78125 C 559.359375 729.230469 559.203125 728.636719 559.070312 728.058594 Z M 563.089844 728.058594 " fill-opacity="1" fill-rule="nonzero"/><path fill="#d14b39" d="M 563.089844 728.058594 C 562.957031 728.636719 562.804688 729.183594 562.59375 729.730469 C 562.203125 730.800781 561.679688 731.8125 561.050781 732.78125 C 560.453125 731.839844 559.960938 730.847656 559.566406 729.78125 C 559.359375 729.230469 559.203125 728.636719 559.070312 728.058594 Z M 563.089844 728.058594 " fill-opacity="1" fill-rule="nonzero"/><path fill="#d14b39" d="M 563.089844 728.058594 C 562.957031 728.636719 562.804688 729.183594 562.59375 729.730469 C 562.203125 730.800781 561.679688 731.8125 561.050781 732.78125 C 560.453125 731.839844 559.960938 730.847656 559.566406 729.78125 C 559.359375 729.230469 559.203125 728.636719 559.070312 728.058594 Z M 563.089844 728.058594 " fill-opacity="1" fill-rule="nonzero"/><path fill="#d14b39" d="M 532.328125 701.53125 C 532.328125 701.113281 529.980469 699.777344 529.671875 699.542969 C 527.453125 697.980469 525.15625 696.515625 522.78125 695.1875 C 517.253906 692.113281 510.574219 689.03125 504.101562 689.839844 C 494.765625 690.988281 490.902344 702.90625 492.441406 711.101562 C 493.984375 719.164062 500.242188 725.136719 506.945312 729.203125 C 515.894531 734.636719 525.964844 737.792969 536.21875 739.457031 C 545.425781 740.945312 555.261719 741.519531 564.578125 741.546875 C 564.785156 741.546875 564.996094 741.546875 565.125 741.390625 C 565.230469 741.257812 565.230469 741.101562 565.230469 740.921875 C 565.230469 736.644531 565.230469 732.363281 565.230469 728.058594 C 565.230469 728.058594 538.878906 688.222656 519.128906 688.222656 C 519.128906 688.222656 532.300781 694.851562 532.300781 701.503906 " fill-opacity="1" fill-rule="nonzero"/><path fill="#d14b39" d="M 598.175781 701.316406 C 598.175781 700.902344 600.527344 699.570312 600.839844 699.339844 C 603.054688 697.769531 605.347656 696.3125 607.726562 694.980469 C 613.230469 691.898438 619.933594 688.824219 626.40625 689.632812 C 635.742188 690.777344 639.605469 702.703125 638.0625 710.894531 C 636.527344 718.957031 630.269531 724.929688 623.5625 729 C 614.636719 734.421875 604.539062 737.582031 594.292969 739.253906 C 585.082031 740.738281 575.242188 741.3125 565.933594 741.335938 C 565.722656 741.335938 565.515625 741.335938 565.386719 741.183594 C 565.277344 741.054688 565.277344 740.894531 565.277344 740.710938 C 565.277344 736.429688 565.277344 732.15625 565.277344 727.847656 C 565.277344 727.847656 591.628906 688.015625 611.375 688.015625 C 611.375 688.015625 598.203125 694.640625 598.203125 701.292969 " fill-opacity="1" fill-rule="nonzero"/><path fill="#d14b39" d="M 499.957031 753.574219 C 491.550781 749.683594 482.710938 744.390625 476.476562 737.398438 C 474.777344 735.519531 473.421875 733.148438 470.761719 732.519531 C 467.476562 731.738281 439.21875 723.621094 439.21875 723.621094 C 445.144531 720.519531 450.855469 717.15625 456.335938 713.738281 C 464.6875 708.519531 472.769531 702.886719 480.597656 696.933594 C 478.5625 699.960938 480.675781 706.304688 481.566406 709.433594 C 485.003906 721.640625 493.121094 731.839844 502.511719 740.035156 C 508.71875 745.457031 516.601562 749.089844 522.625 754.433594 C 502.695312 749.683594 483.414062 737.503906 473.6875 718.902344 C 479.605469 732.390625 488.710938 744.15625 499.929688 753.574219 " fill-opacity="1" fill-rule="nonzero"/><path fill="#d14b39" d="M 630.917969 753.574219 C 639.316406 749.683594 648.160156 744.390625 654.398438 737.398438 C 656.09375 735.519531 657.449219 733.148438 660.113281 732.519531 C 663.402344 731.738281 691.648438 723.621094 691.648438 723.621094 C 685.730469 720.519531 680.019531 717.15625 674.539062 713.738281 C 666.1875 708.519531 658.101562 702.886719 650.277344 696.933594 C 652.3125 699.960938 650.195312 706.304688 649.3125 709.433594 C 645.867188 721.640625 637.753906 731.839844 628.363281 740.035156 C 622.152344 745.457031 614.273438 749.089844 608.246094 754.433594 C 628.179688 749.683594 647.457031 737.503906 657.1875 718.902344 C 651.269531 732.390625 642.160156 744.15625 630.945312 753.574219 " fill-opacity="1" fill-rule="nonzero"/><path fill="#d14b39" d="M 537.835938 754.433594 C 537.835938 754.433594 551.769531 761.453125 586.59375 754.433594 " fill-opacity="1" fill-rule="nonzero"/><path fill="#d14b39" d="M 320.804688 564.328125 C 307.160156 503.671875 292.972656 447.324219 282.144531 390.320312 C 273.480469 344.640625 290.804688 315.164062 333.019531 295.855469 C 381.777344 273.578125 432.542969 273.914062 483.988281 283.332031 C 485.53125 283.621094 487.121094 283.648438 489.128906 283.828125 C 475.460938 273.628906 440.84375 264.679688 409.875 262.28125 C 378.433594 259.832031 348.566406 265.125 319.894531 278.222656 C 312.539062 281.585938 304.96875 285.132812 297.144531 286.519531 C 294.351562 287.011719 287.542969 281.402344 287.542969 278.585938 C 287.542969 221.972656 345.875 155.660156 401.003906 146.890625 C 445.480469 139.820312 486.078125 150.988281 524.007812 172.222656 C 548.742188 186.078125 571.203125 204 596.246094 221.164062 C 560.6875 168.050781 516.363281 130.222656 452.445312 118.457031 C 501.414062 105.101562 550.75 103.402344 599.976562 115.847656 C 651.058594 128.757812 689.355469 158.136719 709.734375 209.007812 C 710.199219 178.5625 700.316406 151.953125 681.8125 127.375 C 760.96875 137.582031 803.023438 165.308594 811.03125 296.507812 C 815.777344 277.566406 820.53125 258.652344 825.25 239.714844 C 826.683594 239.527344 828.148438 239.324219 829.578125 239.136719 C 832.710938 262.984375 835.839844 286.855469 838.839844 309.683594 C 841.085938 306.371094 848.675781 310.78125 847.292969 320.617188 C 852.585938 317.5625 851.492188 395.699219 843.640625 436.394531 C 835.632812 477.953125 823.632812 518.699219 814.109375 556.867188 C 808.472656 557.964844 801.5625 557.285156 799.835938 560 C 795.042969 567.511719 791.253906 576.148438 789.117188 584.863281 C 784.574219 603.304688 781.628906 622.140625 777.480469 640.71875 C 773.855469 656.972656 763.394531 666.78125 746.824219 667.144531 C 711.296875 667.925781 675.683594 668.816406 640.234375 667.144531 C 631.363281 666.726562 619.855469 658.636719 614.898438 650.683594 C 602.328125 630.492188 593.089844 608.207031 581.742188 587.207031 C 578.847656 581.863281 573.003906 578.101562 568.515625 573.617188 C 564.050781 578.316406 558.316406 582.300781 555.367188 587.808594 C 544.304688 608.367188 534.261719 629.441406 523.644531 650.238281 C 518.035156 661.21875 509.292969 667.925781 496.613281 667.898438 C 461.605469 667.847656 426.59375 668.082031 391.585938 667.246094 C 374.578125 666.855469 363.304688 657.492188 359.734375 640.167969 C 355.898438 621.539062 352.710938 602.757812 348.300781 584.289062 C 346.347656 576.070312 343.246094 567.566406 338.445312 560.757812 C 334.191406 554.703125 326.992188 545.964844 320.804688 564.28125 M 802.789062 522.851562 C 799.265625 513.71875 798.324219 508.761719 795.742188 505.007812 C 782.464844 485.753906 780.171875 464.074219 778.972656 441.402344 C 778.027344 423.660156 774.558594 405.765625 769.8125 388.601562 C 764.121094 368.042969 753.53125 359.460938 733.105469 361.757812 C 714.871094 363.792969 697 370.359375 679.390625 376.257812 C 665.167969 381.003906 652.097656 390.476562 637.671875 393.035156 C 571.410156 404.851562 507.992188 404.488281 444.28125 371.585938 C 387.824219 342.449219 364.582031 363.058594 357.746094 415.652344 C 353.363281 449.359375 355.765625 484.527344 334.554688 514.1875 C 333.828125 515.234375 334.449219 517.269531 334.449219 521.257812 C 353.890625 521.257812 373.21875 520.789062 392.523438 521.363281 C 440.527344 522.769531 488.578125 522.925781 534.753906 539.9375 C 558.1875 548.574219 583.230469 548.675781 606.371094 539.648438 C 637.777344 527.367188 670.210938 523.839844 703.15625 523.058594 C 735.375 522.277344 767.621094 522.875 802.789062 522.875 " fill-opacity="1" fill-rule="nonzero"/><path fill="#d14b39" d="M 748.65625 751.644531 C 745.785156 753.753906 742.941406 755.789062 740.277344 757.589844 C 739.914062 756.753906 739.523438 755.917969 739.132812 755.109375 C 742.183594 753.625 745.367188 752.453125 748.679688 751.644531 " fill-opacity="1" fill-rule="nonzero"/><path fill="#d14b39" d="M 739.289062 744.472656 C 739.625 745.148438 739.941406 745.828125 740.257812 746.507812 C 740.332031 746.65625 740.386719 746.789062 740.460938 746.945312 C 742.707031 745.433594 745.078125 743.765625 747.457031 742.015625 C 747.921875 741.675781 748.367188 741.335938 748.839844 741 C 745.550781 741.808594 742.339844 742.957031 739.289062 744.464844 M 375.75 741.285156 C 378.542969 743.347656 381.332031 745.328125 383.941406 747.074219 C 384.042969 746.871094 384.125 746.65625 384.226562 746.425781 C 381.542969 744.417969 378.722656 742.699219 375.75 741.257812 " fill-opacity="1" fill-rule="nonzero"/><path fill="#d14b39" d="M 748.65625 751.644531 C 745.785156 753.753906 742.941406 755.789062 740.277344 757.589844 C 739.914062 756.753906 739.523438 755.917969 739.132812 755.109375 C 742.183594 753.625 745.367188 752.453125 748.679688 751.644531 " fill-opacity="1" fill-rule="nonzero"/><path fill="#d14b39" d="M 375.5625 741.15625 C 375.5625 741.15625 375.699219 741.257812 375.777344 741.285156 C 378.5625 743.347656 381.359375 745.328125 383.96875 747.074219 C 384.070312 746.871094 384.148438 746.65625 384.253906 746.425781 C 384.515625 745.800781 384.832031 745.199219 385.113281 744.574219 C 382.0625 743.089844 378.878906 741.910156 375.5625 741.101562 M 740.257812 746.480469 C 740.332031 746.636719 740.386719 746.765625 740.460938 746.921875 C 742.707031 745.410156 745.078125 743.738281 747.457031 741.992188 C 744.949219 743.265625 742.550781 744.78125 740.257812 746.480469 " fill-opacity="1" fill-rule="nonzero"/><path fill="#d14b39" d="M 718.914062 732.835938 C 718.914062 732.835938 718.78125 732.78125 718.707031 732.753906 C 718.707031 732.753906 718.707031 732.753906 718.707031 732.730469 Z M 718.914062 732.835938 " fill-opacity="1" fill-rule="nonzero"/><path fill="#d14b39" d="M 718.707031 732.730469 L 718.914062 732.835938 C 718.914062 732.835938 718.78125 732.78125 718.707031 732.753906 C 718.707031 732.753906 718.707031 732.753906 718.707031 732.730469 " fill-opacity="1" fill-rule="nonzero"/><path fill="#d14b39" d="M 719.589844 716.03125 L 719.800781 716.136719 L 719.589844 716.058594 C 719.589844 716.058594 719.589844 716.058594 719.589844 716.03125 " fill-opacity="1" fill-rule="nonzero"/><path fill="#d14b39" d="M 748.65625 751.644531 C 745.785156 753.753906 742.941406 755.789062 740.277344 757.589844 C 739.914062 756.753906 739.523438 755.917969 739.132812 755.109375 C 742.183594 753.625 745.367188 752.453125 748.679688 751.644531 " fill-opacity="1" fill-rule="nonzero"/><path fill="#d14b39" d="M 760.082031 735.753906 C 752.777344 736.667969 727.339844 742.328125 716.960938 776.53125 L 717.0625 776.6875 C 721.445312 764.269531 729.007812 753.835938 738.503906 746.765625 C 738.585938 746.921875 738.632812 747.054688 738.714844 747.207031 C 740.957031 745.699219 743.332031 744.027344 745.707031 742.28125 C 748.578125 740.789062 751.578125 739.589844 754.683594 738.703125 C 756.636719 738.128906 758.648438 737.710938 760.710938 737.425781 C 760.523438 736.875 760.3125 736.300781 760.082031 735.753906 " fill-opacity="1" fill-rule="nonzero"/><path fill="#d14b39" d="M 920.421875 542.128906 C 913.480469 527.023438 902.417969 513.640625 888.488281 504.613281 C 880.527344 499.472656 871.765625 495.664062 862.636719 493.265625 C 858.039062 492.066406 853.347656 491.253906 848.601562 490.816406 C 845.75 490.554688 837.769531 488.988281 835.113281 490.5 C 838.476562 488.230469 807.613281 470.855469 787.890625 470.148438 C 797.308594 482.464844 806.179688 495.796875 809.335938 511.007812 C 812.496094 526.214844 808.835938 543.746094 796.761719 553.421875 C 808.132812 583.269531 801.925781 619.167969 781.210938 643.347656 C 790.835938 648.386719 803.988281 644.730469 809.699219 635.445312 C 812.253906 641.054688 812.597656 647.367188 811.242188 653.394531 C 811.214844 653.554688 811.1875 653.707031 811.132812 653.839844 C 809.726562 659.8125 806.671875 665.472656 802.527344 669.960938 C 794.074219 679.0625 781.835938 683.789062 769.628906 685.71875 C 763.445312 686.707031 756.6875 687.253906 752.125 691.5625 C 746.230469 697.09375 746.648438 706.121094 749.4375 714.101562 C 750.167969 716.1875 751.050781 718.195312 752.019531 720.050781 C 754.710938 725.191406 757.992188 730.382812 760.105469 735.753906 C 760.3125 736.300781 760.523438 736.847656 760.730469 737.425781 C 758.695312 737.710938 756.6875 738.15625 754.710938 738.703125 C 751.601562 739.589844 748.601562 740.765625 745.730469 742.28125 C 743.332031 744.027344 740.957031 745.699219 738.742188 747.207031 C 738.660156 747.054688 738.613281 746.921875 738.53125 746.765625 C 729.007812 753.835938 721.46875 764.269531 717.089844 776.6875 C 714.351562 784.40625 712.835938 792.886719 712.835938 801.785156 C 712.835938 807.859375 713.542969 813.757812 714.871094 819.339844 C 714.972656 823.4375 715.316406 827.585938 715.734375 831.761719 C 713.644531 840.734375 719.253906 860.71875 717.480469 860.898438 C 716.097656 900.609375 695.828125 939.164062 665.015625 964.207031 C 636.707031 987.195312 600.339844 999.039062 563.898438 999.535156 L 563.898438 999.21875 C 526.382812 999.402344 488.660156 987.585938 459.496094 963.871094 C 428.445312 938.644531 408.128906 899.71875 406.976562 859.726562 C 406.976562 859.726562 405.175781 841.335938 408.519531 833.898438 C 408.722656 831.761719 408.957031 829.59375 409.113281 827.457031 C 409.351562 824.636719 409.53125 821.820312 409.613281 819.027344 C 410.941406 813.445312 411.648438 807.550781 411.648438 801.46875 C 411.648438 788.035156 408.203125 775.5625 402.332031 765.234375 C 398.078125 757.71875 392.523438 751.328125 386.058594 746.507812 C 385.949219 746.710938 385.871094 746.921875 385.769531 747.15625 C 383.160156 745.410156 380.367188 743.398438 377.578125 741.363281 C 375.070312 740.164062 372.460938 739.171875 369.800781 738.417969 C 367.84375 737.839844 365.835938 737.425781 363.773438 737.136719 C 363.90625 736.746094 364.035156 736.355469 364.191406 735.992188 C 366.304688 730.4375 369.699219 725.085938 372.460938 719.792969 C 373.425781 717.9375 374.316406 715.929688 375.042969 713.839844 C 377.835938 705.832031 378.253906 696.832031 372.359375 691.277344 C 367.796875 686.96875 361.035156 686.421875 354.851562 685.433594 C 342.644531 683.5 330.410156 678.78125 321.957031 669.671875 C 317.804688 665.183594 314.757812 659.527344 313.347656 653.554688 C 313.292969 653.394531 313.269531 653.238281 313.242188 653.109375 C 311.886719 647.082031 312.25 640.765625 314.777344 635.160156 C 320.46875 644.445312 333.640625 648.101562 343.265625 643.066406 C 322.554688 618.851562 316.375 582.957031 327.722656 553.136719 C 315.667969 543.457031 311.988281 525.925781 315.148438 510.71875 C 318.304688 495.507812 327.175781 482.175781 336.589844 469.863281 C 316.867188 470.566406 286.007812 487.945312 289.371094 490.210938 C 286.707031 488.699219 278.726562 490.265625 275.882812 490.527344 C 271.164062 490.972656 266.464844 491.800781 261.847656 492.980469 C 252.691406 495.351562 243.949219 499.1875 235.996094 504.328125 C 222.066406 513.328125 211.003906 526.734375 204.0625 541.839844 C 198.636719 553.636719 195.6875 566.601562 195.816406 579.617188 C 196.078125 609.253906 212.152344 638.292969 237.066406 654.074219 L 402.359375 975.140625 L 528.753906 1053.742188 L 638.453125 1030.214844 L 719.851562 960.269531 L 802.835938 862.570312 L 833.519531 741.074219 L 887.46875 654.410156 C 912.386719 638.65625 928.457031 609.617188 928.714844 579.957031 C 928.820312 566.9375 925.875 553.972656 920.46875 542.183594 M 740.304688 757.644531 C 739.941406 756.808594 739.550781 755.972656 739.160156 755.164062 C 742.210938 753.679688 745.394531 752.507812 748.707031 751.699219 C 745.839844 753.808594 742.992188 755.84375 740.332031 757.644531 " fill-opacity="1" fill-rule="nonzero"/><path fill="#d14b39" d="M 402.304688 765.207031 C 398.050781 757.691406 392.496094 751.300781 386.03125 746.480469 C 385.921875 746.683594 385.84375 746.898438 385.742188 747.128906 C 383.132812 745.382812 380.339844 743.375 377.550781 741.335938 C 375.042969 740.136719 372.433594 739.148438 369.773438 738.390625 C 367.816406 737.839844 365.808594 737.398438 363.746094 737.109375 C 363.878906 736.71875 364.007812 736.328125 364.164062 735.964844 C 372.125 737.164062 390.824219 742.382812 402.304688 765.261719 " fill-opacity="1" fill-rule="nonzero"/><path fill="#d14b39" d="M 748.65625 751.644531 C 745.785156 753.753906 742.941406 755.789062 740.277344 757.589844 C 739.914062 756.753906 739.523438 755.917969 739.132812 755.109375 C 742.183594 753.625 745.367188 752.453125 748.679688 751.644531 " fill-opacity="1" fill-rule="nonzero"/><path fill="#ffffff" d="M 252.691406 572.417969 C 252.691406 576.5625 253.527344 580.527344 255.011719 584.128906 C 255.636719 572.183594 263.152344 562.085938 273.617188 557.78125 C 273.300781 558.457031 273.015625 559.136719 272.726562 559.839844 C 271.34375 563.675781 272.261719 561.199219 271.34375 563.675781 C 264.617188 584.363281 273.117188 608.105469 291.0625 619.742188 C 287.050781 632.628906 288.667969 647.445312 295.53125 659.082031 C 275.390625 664.953125 255.613281 645.566406 249.585938 627.828125 C 248.335938 621.933594 243.484375 617.886719 241.003906 612.433594 C 223.523438 581.734375 231.296875 538.660156 257.019531 516.117188 C 277.136719 516.613281 294.199219 529.214844 301.34375 547.242188 C 280.1875 535.578125 253.136719 546.148438 252.691406 572.417969 " fill-opacity="1" fill-rule="nonzero"/><path fill="#d14b39" d="M 854.027344 678.78125 L 763.183594 688.042969 C 763.183594 688.042969 765.347656 722.582031 763.183594 731.792969 C 761.019531 741 743.695312 810.082031 743.695312 810.082031 L 700.363281 925.207031 L 603.027344 1017.300781 C 603.027344 1017.300781 475.324219 994.265625 445.042969 971.304688 C 414.75 948.351562 354.148438 688.042969 354.148438 688.042969 L 254.648438 688.222656 C 251.566406 716.550781 231.324219 744.9375 234.195312 773.609375 C 234.847656 780.160156 236.175781 786.625 237.195312 793.148438 C 237.976562 793.070312 238.757812 792.992188 239.546875 792.914062 C 242.492188 781.90625 245.410156 770.921875 248.957031 757.5625 C 256.34375 834.601562 268.554688 888.632812 281.152344 902.195312 C 283.734375 888.449219 286.34375 874.46875 288.980469 860.507812 C 311.15625 911.148438 345.148438 949.886719 384.617188 984.402344 C 383.625 980.121094 382.640625 975.875 381.386719 970.523438 C 382.742188 970.757812 383.1875 970.707031 383.394531 970.914062 C 384.386719 971.824219 385.351562 972.742188 386.234375 973.757812 C 430.066406 1024.707031 484.148438 1057.476562 546.46875 1075.320312 C 551.371094 1076.730469 557.195312 1077.222656 562.015625 1075.867188 C 607.410156 1063.085938 649.46875 1042.679688 686.066406 1010.960938 C 700.335938 998.59375 713.671875 984.949219 728.015625 971.277344 C 727.261719 976.050781 726.585938 980.304688 725.542969 986.984375 C 765.53125 950.332031 798.480469 910.78125 819.304688 860.769531 C 820.1875 861.03125 821.097656 861.316406 821.988281 861.578125 C 824.339844 875.847656 826.707031 890.121094 829.058594 904.390625 C 844.765625 878.433594 855.539062 828.472656 860.621094 755.84375 C 864.695312 770.425781 868.0625 782.371094 871.398438 794.324219 C 878.417969 758.582031 854.027344 678.726562 854.027344 678.726562 " fill-opacity="1" fill-rule="nonzero"/><path fill="#ffffff" d="M 864.328125 580.398438 C 864.328125 584.546875 863.492188 588.515625 862.007812 592.113281 C 861.382812 580.164062 853.867188 570.066406 843.40625 565.765625 C 843.71875 566.445312 844.003906 567.121094 844.292969 567.828125 C 844.867188 570.328125 844.292969 568.425781 845.675781 571.65625 C 852.410156 592.351562 843.902344 616.085938 825.953125 627.722656 C 829.96875 640.613281 828.324219 655.429688 821.496094 667.0625 C 841.632812 672.933594 861.410156 653.554688 867.429688 635.8125 C 868.683594 629.914062 873.539062 625.875 876.015625 620.421875 C 893.496094 589.714844 885.71875 546.640625 860 524.097656 C 839.886719 524.597656 822.824219 537.195312 815.671875 555.222656 C 836.832031 543.566406 863.882812 554.128906 864.328125 580.398438 " fill-opacity="1" fill-rule="nonzero"/><path fill="#d14b39" d="M 439.246094 723.621094 L 387.460938 750.574219 L 406.769531 778.40625 L 460.144531 723.621094 Z M 439.246094 723.621094 " fill-opacity="1" fill-rule="nonzero"/><path fill="#d14b39" d="M 692.644531 724.09375 L 744.429688 751.015625 L 725.125 778.878906 L 671.71875 724.09375 Z M 692.644531 724.09375 " fill-opacity="1" fill-rule="nonzero"/><path fill="#d14b39" d="M 693.480469 949.160156 C 630.527344 1031.050781 603.734375 1038.453125 562.230469 1034.597656 C 520.71875 1038.453125 493.929688 1031.050781 430.980469 949.160156 C 430.980469 949.160156 376.351562 897.582031 389.996094 850.671875 C 403.660156 803.765625 412.769531 780.339844 412.769531 780.339844 L 417.332031 780.339844 L 440.109375 770.972656 C 439.820312 771.914062 421.792969 832.074219 408.230469 850.699219 C 394.585938 869.457031 503.867188 982.003906 517.511719 986.695312 C 524.117188 988.96875 534.9375 980.304688 546.445312 971.25 C 555.785156 963.921875 568.75 963.921875 578.066406 971.25 C 589.566406 980.277344 600.394531 988.941406 606.972656 986.695312 C 620.636719 982.003906 729.898438 869.457031 716.253906 850.699219 C 702.683594 832.101562 684.65625 771.914062 684.375 770.972656 L 707.125 780.339844 L 711.6875 780.339844 C 711.6875 780.339844 720.789062 803.792969 734.460938 850.671875 C 748.132812 897.582031 693.480469 949.160156 693.480469 949.160156 " fill-opacity="1" fill-rule="nonzero"/><path fill="#d14b39" d="M 509.03125 689.890625 L 506.710938 693.179688 C 506.710938 693.179688 501.441406 693.960938 495.386719 695.398438 C 495.359375 695.398438 495.3125 695.398438 495.285156 695.421875 C 491.550781 696.570312 477.515625 704.867188 477.515625 704.867188 C 477.515625 704.867188 475.980469 704.683594 476.839844 702.339844 C 476.96875 702.023438 477.367188 701.632812 477.960938 701.214844 L 477.496094 699.257812 C 477.496094 699.257812 495.804688 684.910156 509.007812 689.890625 " fill-opacity="1" fill-rule="nonzero"/><path fill="#d14b39" d="M 623.460938 690.363281 L 625.726562 693.699219 C 625.726562 693.699219 630.96875 694.589844 636.996094 696.097656 C 637.023438 696.097656 637.078125 696.097656 637.097656 696.125 C 640.804688 697.351562 654.683594 705.886719 654.683594 705.886719 C 654.683594 705.886719 656.222656 705.730469 655.386719 703.378906 C 655.257812 703.066406 654.867188 702.648438 654.269531 702.230469 L 654.761719 700.277344 C 654.761719 700.277344 636.707031 685.613281 623.433594 690.335938 " fill-opacity="1" fill-rule="nonzero"/><path fill="#d14b39" d="M 450.4375 842.015625 C 450.4375 842.015625 489.050781 907.992188 563.089844 903.527344 L 563.089844 878.015625 C 563.089844 878.015625 488.421875 876.761719 481.769531 833.636719 C 481.769531 833.636719 480.496094 812.921875 461.660156 828.003906 C 461.660156 828.003906 447.625 837.707031 450.4375 842.015625 " fill-opacity="1" fill-rule="nonzero"/><path fill="#d14b39" d="M 675.738281 842.015625 C 675.738281 842.015625 637.125 907.992188 563.089844 903.527344 L 563.089844 878.015625 C 563.089844 878.015625 637.753906 876.761719 644.40625 833.636719 C 644.40625 833.636719 645.679688 812.921875 664.519531 828.003906 C 664.519531 828.003906 678.554688 837.707031 675.738281 842.015625 " fill-opacity="1" fill-rule="nonzero"/></svg>